<svg width="86" height="45" viewBox="0 0 86 45" fill="none" xmlns="http://www.w3.org/2000/svg">
<path d="M8.25 44.375C7.33333 44.375 6.25 44.0417 5 43.375C5 43.2083 5.08333 43.125 5.25 43.125L5 42.125H4V41.625L4.5 40.875V40.625H3.75C3.75 40.1667 3.91667 39.9167 4.25 39.875L4 39.375V37C4.5 36.2083 4.75 35.5417 4.75 35C4.04167 35 3.54167 34.3333 3.25 33H3L2.75 34H2.5V33.75C3.33333 31.8333 3.75 29.75 3.75 27.5L3.5 24L4 23.25L3.75 22.75H4L3.5 21.5L3.75 20.25C3.75 19.9583 3.58333 19.7917 3.25 19.75C3.625 19.2917 3.875 18.25 4 16.625L3.75 16.125C3.91667 16.125 4 16.0417 4 15.875V11.625L3.75 11.125H4C3.83333 10.0417 3.75 8.95833 3.75 7.875C3.75 7.58333 3.91667 7.41667 4.25 7.375L4 4.875C4 3.375 4.25 2.33333 4.75 1.75L4.5 1.25C4.83333 1.25 5 1 5 0.5H6L6.5 0.75C6.5 0.541667 6.83333 0.375 7.5 0.25L8 0.75H9C10 0.75 10.5 1 10.5 1.5H11.5C11.8333 1.5 12 1.25 12 0.75H12.5V1.25C13.7083 1.25 14.4583 1.33333 14.75 1.5C17.125 1.33333 19.125 0.833333 20.75 0V0.25C21.5833 0.0833333 22.1667 0 22.5 0C22.5 0.583333 23.1667 1 24.5 1.25L24 2V3.625L24.25 4.125C24.0833 4.125 23.8333 4.20833 23.5 4.375C23.5 4.20833 23.4167 4.125 23.25 4.125H22.5C22.5 4.54167 20.5833 5.20833 16.75 6.125C16.4583 5.95833 15.7083 5.79167 14.5 5.625C14.1667 5.625 13.5833 5.79167 12.75 6.125C12.75 5.95833 12.6667 5.875 12.5 5.875L12 6.125C12 5.83333 11.8333 5.66667 11.5 5.625C11.5 5.79167 11.4167 6.04167 11.25 6.375L11.5 6.875H9.25L9.5 6.375V6.125L9 6.375L9.5 15.375C9.5 16.125 10.0833 16.7917 11.25 17.375C11.625 17.375 12.7083 17.125 14.5 16.625L15 16.875C15.25 16.875 15.75 16.625 16.5 16.125C16.5 16.2917 16.6667 16.375 17 16.375C17.6667 16.125 18 15.7083 18 15.125C19.0417 15.3333 19.9583 15.5833 20.75 15.875L21.25 15.625C21.7917 15.9583 22.2917 16.125 22.75 16.125V16.375L22 19.75V20C22.2917 20 22.7083 19.8333 23.25 19.5C23.375 19.5 23.875 19.6667 24.75 20V20.25C24.25 20.25 24 20.5 24 21C23.25 20.5 22.6667 20.25 22.25 20.25L21.25 21C20.7083 21 20.2917 20.9167 20 20.75C18.875 21.25 17.7917 21.5 16.75 21.5L15 21.25C13.1667 21.7083 12.25 22.0417 12.25 22.25C12.0833 22.25 12 22.1667 12 22L11.25 22.5H11V22H10C9.875 23 9.54167 23.5 9 23.5C9 24.0417 9.08333 24.4583 9.25 24.75C9.08333 25.0417 9 25.7917 9 27L9.5 27.75C8.83333 28.5833 8.5 29.0833 8.5 29.25L8.75 30.5C8.91667 30.5 9 30.4167 9 30.25L9.5 30.5C9.5 30.6667 9.41667 30.75 9.25 30.75C9.25 30.9167 9.33333 31 9.5 31C9.16667 32.625 9 33.5417 9 33.75L9.25 34.25C9.04167 34.25 8.875 35.0833 8.75 36.75C8.91667 37.0833 9 37.3333 9 37.5H9.5V37C9.75 37 10.0833 37.1667 10.5 37.5H11.25L11 37C12.1667 37.3333 12.9167 37.5 13.25 37.5V37C14.4167 37.1667 15.25 37.25 15.75 37.25C16.0833 37.25 16.25 37 16.25 36.5L16.75 36.75H18C18.375 36.4167 18.875 36.25 19.5 36.25V35.5C20.2917 35.5 20.7917 35.5833 21 35.75C21 35.5833 21.0833 35.5 21.25 35.5V36H22.75L22.25 36.75V37L22.5 37.5L24.25 37C24.25 37.1667 24.3333 37.4167 24.5 37.75H24.25L24.5 38.875V39.125L23.5 39.375L23.75 39.875C22.4167 40.4167 21.75 40.9167 21.75 41.375L21.25 41.125C21.25 40.9583 21.3333 40.875 21.5 40.875C21.5 40.5833 21.3333 40.4167 21 40.375C21 40.75 20.6667 41.0833 20 41.375L20.5 42.125C15.1667 42.9583 12 43.375 11 43.375V42.875H11.75V42.375H10.5L9.75 42.875C9.33333 43.875 8.83333 44.375 8.25 44.375ZM2.75 43.625C1.58333 43.2917 0.916667 43.125 0.75 43.125C0.75 42.9167 1.16667 42.5 2 41.875C2.16667 41.875 2.41667 41.9583 2.75 42.125L3.25 41.875C3.41667 41.875 3.58333 42.125 3.75 42.625L2.75 43.625ZM23 19.25C23 17.8333 22.9167 17.125 22.75 17.125C22.75 16.7917 23.0833 16.625 23.75 16.625V17.125C23.5833 17.125 23.3333 17.8333 23 19.25ZM32.5 43.75L31.25 43.5C30.7917 43.5 30.375 41.8333 30 38.5C30.1667 37.375 30.25 36.625 30.25 36.25V32.25L30.5 31C30.2917 31 30.0417 30.3333 29.75 29C30.25 28.25 30.5 27.5 30.5 26.75L30.25 24.25C30.4167 23.9167 30.5 23.6667 30.5 23.5C30.3333 22.8333 30.25 22.1667 30.25 21.5H30.75C30.75 22.1667 31 22.5 31.5 22.5L31.25 21.25L31.5 20C31.3333 20 31.25 19.9167 31.25 19.75H31.5C31.5 17.8333 31.3333 16.4167 31 15.5H31.25C31.25 15.0417 31.0833 12.8333 30.75 8.875L31.25 8.625H31.5V9.125H31.75V8.125L31.5 7.625C31.6667 7.625 31.75 7.5 31.75 7.25C31.75 6.875 31.5833 6.66667 31.25 6.625C31.25 6.45833 31.3333 6.20833 31.5 5.875C31.3333 5.58333 31.25 5 31.25 4.125L31.75 2.375C32.2083 2.375 32.5417 2.875 32.75 3.875L33.75 3.375C33.75 3.20833 33.6667 3.125 33.5 3.125L33.75 2.625C36.9167 2.625 38.5 3.79167 38.5 6.125C39.8333 7.83333 40.5 9 40.5 9.625C41.875 10.875 43.0417 13.75 44 18.25C44 18.5 43.8333 18.8333 43.5 19.25V20C43.8333 20 44.1667 19.9167 44.5 19.75L44.75 20.25V20.5C44.5833 20.5 44.3333 20.5833 44 20.75C44 21.3333 44.6667 22.6667 46 24.75H47.5L47.25 24.25V23.5C47.4167 23.5 47.5 23.5833 47.5 23.75C47.8333 23.75 48 23.5833 48 23.25C47.7083 22.875 47.4583 22.0417 47.25 20.75C47.4167 20.75 47.5 20.6667 47.5 20.5V17.25H48C48 17.0833 47.9167 17 47.75 17L48 16.5C48 16.3333 47.8333 15.6667 47.5 14.5V14H48C48 13.625 47.9167 13.2917 47.75 13C47.75 12.7917 47.9167 11.4583 48.25 9H47.75V9.5H47.25C47.25 9 47.3333 8.41667 47.5 7.75L47 5.5C47.1667 5.5 47.25 5.41667 47.25 5.25L47.75 5.5H48C48 4.33333 48.8333 3.75 50.5 3.75L50.25 2.5C50.75 2.5 51 2.16667 51 1.5C51.2917 1.5 51.625 2.08333 52 3.25H51.75L52 3.75C52.1667 3.75 52.25 3.66667 52.25 3.5C52.5833 3.5 52.75 3.66667 52.75 4C52.9167 4 53.1667 3.91667 53.5 3.75C53.5 4.625 53.3333 5.29167 53 5.75C53 6.08333 53.1667 6.25 53.5 6.25C53.3333 7.58333 53.0833 8.25 52.75 8.25C52.75 8.58333 53 8.75 53.5 8.75V9.25H53V9.75C53.6667 9.75 54 10.6667 54 12.5V13.25H53.5L53.75 12.75V12.5H53.25C53.25 13 53.1667 13.5833 53 14.25C53 14.5833 53.25 14.75 53.75 14.75V15.75C53.5833 15.75 53.5 15.6667 53.5 15.5C53.1667 15.5 53 15.75 53 16.25C53.5417 16.25 53.875 16.75 54 17.75L53.5 18C53.5 18.1667 53.5833 18.25 53.75 18.25C53.4167 19.2917 53.25 19.9583 53.25 20.25C53.5833 22 53.75 23.4167 53.75 24.5L53.5 25.75H54C54 26 53.8333 26.3333 53.5 26.75C53.5 27.5 53.6667 27.875 54 27.875C53.5417 27.875 53.125 29.5417 52.75 32.875C52.75 35.4583 52.6667 38.75 52.5 42.75H52.25C52.0833 41.4167 51.8333 40.75 51.5 40.75C51.5 41.75 51.1667 42.25 50.5 42.25C50.3333 42.25 49.75 42 48.75 41.5C48.5833 41.5 48.5 41.3333 48.5 41C47.3333 41 46.75 40.3333 46.75 39V37.375C46.4167 37.375 46.25 37.0417 46.25 36.375H46V36.875H45.75C45.75 36.3333 45.6667 35.9167 45.5 35.625C45.6667 35.625 45.75 35.4583 45.75 35.125L45.5 34.625C45.6667 34.625 45.75 34.5417 45.75 34.375L44.75 33.125C44.9167 33.125 45 32.9583 45 32.625L44.5 32.875C44.5 32.5 44.4167 32.1667 44.25 31.875C44.4167 31.875 44.5 31.7917 44.5 31.625C43.625 30.9583 43.125 30.375 43 29.875V29.125C42 27.4583 41.5 26.4583 41.5 26.125C41.5 25.7917 40.25 24 37.75 20.75C37.75 20.5833 37.8333 20.3333 38 20C37.1667 17.1667 36.5 15.75 36 15.75C35.7917 25.5833 35.5417 30.5 35.25 30.5C35.4167 30.7917 35.5 31.125 35.5 31.5V35.5L35.75 36H35.5C35.5 38.5833 34.5 41.1667 32.5 43.75ZM63.25 29.75C63.5833 29.75 63.75 29.5833 63.75 29.25C63.75 28.9583 63.5833 28.7917 63.25 28.75H63V29.75H63.25ZM77.5 44.5L74.5 44L74 44.25C73.7083 43.25 72.375 42.75 70 42.75L69.5 43C69.5 42.6667 69.25 42.5 68.75 42.5L68.25 42.75C68.25 42.25 67.25 41.9167 65.25 41.75L65 42.25C64.5417 42.125 64.125 41.7083 63.75 41C63.5833 41 63.3333 41.0833 63 41.25H62.75L63 40.75V40.5L62.75 40C62.4583 40 62.2917 40.1667 62.25 40.5C61.4167 40.375 61 40.125 61 39.75L61.5 39C60.8333 38.1667 60.5 37.6667 60.5 37.5H60.75C60.75 37 60.6667 36.75 60.5 36.75C60.5 36.5 60.0833 36.1667 59.25 35.75H59.5C59.5 34.0833 59.25 33.25 58.75 33.25C58.75 33.0833 58.8333 32.8333 59 32.5C58.5 31.4167 58.25 30.0833 58.25 28.5V25.75L59 24.75V24.5L58.75 24L58.25 24.25C58.25 23.0833 58.1667 22.4167 58 22.25H58.25C58.25 21.9583 58.0833 21.7917 57.75 21.75C57.75 21.375 57.8333 20.4583 58 19L57.75 15.5C58.25 14.4167 58.5 13.1667 58.5 11.75C58.5 11.2083 58.4167 10.7917 58.25 10.5C58.4167 10.125 58.5833 9.04167 58.75 7.25C58.75 4.83333 61.5 3.08333 67 2L67.75 2.5H68.25C68.75 2.25 69 2 69 1.75L68.75 1.25C69.25 1.25 69.8333 1.16667 70.5 1L71 1.25C71.8333 1.04167 72.25 0.791667 72.25 0.5H73.75C75.0417 0.5 77.9583 1.58333 82.5 3.75C83.5833 6.125 84.3333 7.375 84.75 7.5L84.5 8C84.5 8.29167 84.9167 8.54167 85.75 8.75L85.5 11.25H85.25V10.25H84.75C84.75 10.4167 84.6667 10.6667 84.5 11L84.75 12.5L84.5 13C84.8333 13 85 13.25 85 13.75C84.8333 13.75 84.5833 13.8333 84.25 14C84.25 14.3333 84.4167 14.5 84.75 14.5C84.5833 14.8333 84.5 15.0833 84.5 15.25C84.3333 15.25 84.25 15.1667 84.25 15C84.0833 15 83.8333 15.0833 83.5 15.25L83 15V15.75H82.5C82.5 15.25 82.3333 15 82 15L82.25 13.5H82.5V14H83.25C83.25 13.6667 83.5833 13.5 84.25 13.5V12.5H83.75C83.4583 12.5 83.2917 12.6667 83.25 13L82.75 12.75H82L81.5 13C81.5 12.625 81.4167 12.2917 81.25 12C81.0833 12 81 12.0833 81 12.25C80.1667 12 79.75 11.4167 79.75 10.5L80 10C80 8.29167 78.75 7.125 76.25 6.5L75.75 6.75C75.75 6.45833 75.25 6.20833 74.25 6L73.75 6.25L73.25 6C70.4167 6.20833 69 6.45833 69 6.75C66.0417 6.75 64.0417 7.75 63 9.75C63 11.9583 63.4167 18.875 64.25 30.5V31.75L64.5 32.25C64 32.5 63.75 32.8333 63.75 33.25C63.75 33.4167 64.4167 34.1667 65.75 35.5V35.75H65V36.25C66.0417 36.9167 68.2083 37.4167 71.5 37.75C71.5 37.9167 71.4167 38 71.25 38C71.25 38.3333 71.4167 38.5 71.75 38.5L72.25 38.25C72.25 38.4167 72.5 38.5 73 38.5L73.5 38.25L73.25 37.75C73.9583 37.75 74.4583 37.8333 74.75 38C75.5833 37.6667 76.1667 37.5 76.5 37.5V38H77.5L78 37.75L77.75 36C78.4167 36 78.75 35.0833 78.75 33.25L78.25 33.5V32C78.75 32 79 31.8333 79 31.5H78.75L78.25 31.75C77.9167 29.5833 77.5833 28.5 77.25 28.5H75.25C71.5833 28.2083 69.75 27.625 69.75 26.75V25.5C69.75 25.3333 69.8333 25.25 70 25.25C70 23.5833 72.3333 22.75 77 22.75C78.9583 23.0833 80.0417 23.25 80.25 23.25C82.75 23.875 84 25.5417 84 28.25H83.75L84.25 30C84.25 31.1667 84.1667 32.3333 84 33.5C84.5 33.625 84.75 34.125 84.75 35V37.5C84.2917 40.1667 83.7083 41.5 83 41.5C83 41.2083 82.8333 41.0417 82.5 41V41.5C82.5 43.0417 80.8333 44.0417 77.5 44.5ZM81.5 44.5H81.25V44H82C82 44.3333 81.8333 44.5 81.5 44.5ZM82.5 13.25H82V13H82.5V13.25ZM85.75 13.5H85.25C85.25 13.3333 85.1667 13.0833 85 12.75V12.5H85.25C85.25 12.75 85.4167 13.0833 85.75 13.5Z" fill="#373536"/>
</svg>
