<svg width="64" height="45" viewBox="0 0 64 45" fill="none" xmlns="http://www.w3.org/2000/svg">
<path d="M22.125 17.875H21.625C21.625 17.5833 21.7917 17.4167 22.125 17.375V17.875ZM24.875 5.25V5H24.375V5.25H24.875ZM28.5 44V43.75H27.375V44H28.5ZM18.625 32V31.75H18.125V32H18.625ZM26.875 8.375V7.875H26.125V8.375H26.875ZM11.125 22.375C11.8333 22.375 12.5 22.2083 13.125 21.875V22.125C14.2917 22 14.875 21.75 14.875 21.375L15.375 21.625H15.625C15.625 21.125 17.2917 20.375 20.625 19.375C20.625 19.5417 20.7083 19.625 20.875 19.625H21.625L22.375 19.125C22.375 18.8333 22.2083 18.6667 21.875 18.625C22.375 18.125 23.0417 17.125 23.875 15.625V15.375H23.375V15.875H22.875C22.875 15.625 22.7083 15.2917 22.375 14.875C22.375 14.4167 22.5417 14.1667 22.875 14.125C22.875 14.625 23.2083 14.9583 23.875 15.125C23.875 14.6667 23.7083 14.4167 23.375 14.375L23.625 13.875V13.625C23.125 13.625 22.875 13.375 22.875 12.875H23.125C23.125 12.5833 22.9583 12.4167 22.625 12.375C22.625 12.25 22.7917 11.6667 23.125 10.625C22.2083 8.45833 18.4583 7.375 11.875 7.375H10.625C9.375 7.375 8.20833 7.625 7.125 8.125C6.91667 9.625 6.66667 10.375 6.375 10.375C6.875 11.9167 7.125 14.25 7.125 17.375C7.125 18.7083 7.04167 20.2083 6.875 21.875C7.5 22.2083 8.16667 22.375 8.875 22.375H11.125ZM18.375 1.25C17.5417 1.125 17.125 0.875 17.125 0.5C17.2917 0.5 17.7917 0.583333 18.625 0.75L18.375 1.25ZM29.75 44.75H29.25V44.5H29.75V44.75ZM14.375 28.5C14.0417 28.3333 13.7917 28.25 13.625 28.25V28H14.625L14.375 28.5ZM1 23.125H0.75V22.625H1V23.125ZM26.625 45C26.625 44.8333 26.375 44.75 25.875 44.75C25.875 44.2083 25.9583 43.7917 26.125 43.5C25.9583 43.1667 25.875 42.9167 25.875 42.75H24.625L23.875 42.25C23.875 42.0833 23.9583 41.8333 24.125 41.5C24.125 41.0417 23.7083 40.7917 22.875 40.75C22.875 40.5833 22.9583 40.5 23.125 40.5L22.875 39.25H22.625L22.125 39.5C22.125 39.2083 21.9583 38.7917 21.625 38.25H22.375C21.375 37.2917 20.5417 36.375 19.875 35.5C19.875 35.3333 19.9583 35.25 20.125 35.25C20.125 34.6667 19.625 34.0833 18.625 33.5C17.5417 30.8333 16.7083 29.5 16.125 29.5C16.125 29.3333 16.2083 29.0833 16.375 28.75C16.375 28.4583 15.9583 28.2917 15.125 28.25C15.125 27.9583 15.2917 27.7917 15.625 27.75L14.875 26.5C14.5 26.5 14.1667 26.5833 13.875 26.75L13.375 26.5C13.125 26.5 12.7917 26.6667 12.375 27C12.375 26.8333 12.2917 26.5833 12.125 26.25C10.0833 27.25 8.75 27.75 8.125 27.75C7.83333 27.75 7.66667 27.5833 7.625 27.25C6.79167 27.25 6.375 27.9583 6.375 29.375C6.875 33.5833 7.125 36.5417 7.125 38.25C7.125 42.25 6.375 44.25 4.875 44.25H3.875L2.75 44C2.25 41.5417 1.58333 39.7917 0.75 38.75V34L1 32.75C0.833333 32.75 0.666667 31.25 0.5 28.25C1.16667 26.2917 1.5 24.2083 1.5 22C1.5 20.0833 1.25 19.125 0.75 19.125V17.125C0.75 16.7917 1 16.625 1.5 16.625L1.25 14.875L1.5 12.375H1V11.875H1.5C1.5 11.5 1.41667 11.1667 1.25 10.875C1.41667 9.16667 1.5 7.45833 1.5 5.75H1V5C1 4.70833 1.16667 4.54167 1.5 4.5C1.5 4.33333 1.41667 4.08333 1.25 3.75V3.25H1.5V4L2 3.75V4.25H2.25C2.25 3.58333 3.125 3.16667 4.875 3C5.04167 2.5 5.95833 2.08333 7.625 1.75L7.375 1.25C8.20833 1.25 9.04167 1.33333 9.875 1.5C9.875 1.33333 9.95833 1.25 10.125 1.25C10.125 1.41667 10.2083 1.5 10.375 1.5C11.0417 1.5 11.7083 1.41667 12.375 1.25C12.375 1.41667 12.4583 1.5 12.625 1.5L13.125 1.25C13.625 1.25 13.875 1.41667 13.875 1.75L14.625 1.25H15.375C16.875 1.75 18.125 2 19.125 2L18.875 2.5C18.875 2.625 19.125 2.875 19.625 3.25C21.2917 3.875 22.125 4.29167 22.125 4.5C22.2917 4.5 22.375 4.41667 22.375 4.25L22.875 4.5H23.125C23.125 4.125 22.2083 3.45833 20.375 2.5V2.25H20.625L24.375 4C25.2917 5.04167 26.375 6.25 27.625 7.625L28.125 7.375C28.125 7.54167 28.2083 7.79167 28.375 8.125L28.125 8.625L28.375 9.125V9.375C27.5417 10.5417 27.125 11.2083 27.125 11.375C27.6667 11.375 28.0833 12.4583 28.375 14.625C28.2083 14.9167 28.125 15.4167 28.125 16.125L28.375 16.625L27.375 17.375L27.625 17.875L28.375 17.375C28.375 17.75 28.2917 18.0833 28.125 18.375L28.375 18.875V19.125L27.875 18.875C27.875 19.0417 27.9583 19.2917 28.125 19.625V19.875H27.875V19.375H27.125C27.125 19.5417 27.2083 20.0417 27.375 20.875C25.8333 23.2917 24.875 24.5 24.5 24.5L24 24.25C24 24.75 23.0833 25.4167 21.25 26.25C22.4167 27.75 23 28.75 23 29.25C24.875 31.5417 26.2917 33.5417 27.25 35.25C27.25 35.5 27.0833 35.8333 26.75 36.25H27V37.5C27.125 37.9583 27.5417 38.375 28.25 38.75L28.75 38.5L29 39C29 39.375 28.9167 39.7083 28.75 40L30.5 44C30.3333 44 30.0833 44.0833 29.75 44.25L29.25 44L29 44.5H27.625L26.625 45ZM41 33.75V33.25H40.75V33.75H41ZM45.5 40.25V39.75H45C45 40.0833 45.1667 40.25 45.5 40.25ZM39.25 40.75V40.5L39 40H39.25C38.5833 39.1667 38.25 38.6667 38.25 38.5C38.4167 38.5 38.5 38.4167 38.5 38.25V37.5L38 37.75C37.6667 37.75 37.5 37.5 37.5 37C37.2083 37 37.0417 37.1667 37 37.5C38.125 39.6667 38.875 40.75 39.25 40.75ZM38.5 37V36.5H38V37H38.5ZM49.25 45C47.5833 45 46.75 44.8333 46.75 44.5C43.6667 44.5 41.25 43.3333 39.5 41V41.5H39.25C38.375 41.0833 37.875 40.5833 37.75 40C37.9167 40 38 39.9167 38 39.75C37.5417 39.75 37.0417 39.0833 36.5 37.75L35.5 30.25H35.75L35.25 21.5C35.4167 21.5 35.5 21.3333 35.5 21C35.2917 21 35.125 20.6667 35 20C35 19.8333 35.0833 19.5833 35.25 19.25L34.75 15.5C34.9167 15.1667 35 14.9167 35 14.75L34.25 8C34.4167 6.25 34.8333 4.91667 35.5 4C36.0417 2.16667 37.0417 1.25 38.5 1.25C40.1667 3.04167 41 5.20833 41 7.75V10.25L41.25 10.75H41C41.1667 11.5833 41.25 12.4167 41.25 13.25C41.25 14.4583 41.1667 15.375 41 16C41.1667 17.0833 41.25 18.1667 41.25 19.25V28.75C41.25 31.875 41.5 33.7917 42 34.5H41.75C41.75 35.8333 44.4167 37.4167 49.75 39.25C50.0833 39.25 50.25 39.0833 50.25 38.75C52.4167 38.75 53.5 37.9167 53.5 36.25C55.3333 33.7917 56.5 31.625 57 29.75C56.7083 29.75 56.5417 29.5833 56.5 29.25H57.25L57 28C58 27.2083 58.5 26.375 58.5 25.5C58.0417 25.5 57.7917 25.6667 57.75 26H57.25V25.75H57.5C57.75 25.0833 58.1667 24.75 58.75 24.75V24.25C58.5833 24.25 58.3333 24.1667 58 24C58 23.375 58.25 22.2083 58.75 20.5L58.25 20.25C58.25 19.9583 58.4167 19.7917 58.75 19.75C58.75 19.5833 58.6667 19.3333 58.5 19L58.75 18.5C58.25 18.125 58 17.875 58 17.75V17.25C58 16.9583 58.1667 16.7917 58.5 16.75C58.5 16.5833 58.4167 16.5 58.25 16.5C58.25 16.2083 58.4167 15.7917 58.75 15.25C58.75 15.0833 58.6667 14.8333 58.5 14.5C58.8333 14.5 59 14.3333 59 14L58.5 13.25C58.5 12.9167 58.75 12.75 59.25 12.75C58.7917 11.4167 58.375 10.75 58 10.75L58.75 9.5V9.25H58C58 9.08333 58.0833 8.83333 58.25 8.5L58 7L58.25 6.5L58 6L58.5 5.75C58 4 57.75 3.08333 57.75 3H58.75C58.75 3.33333 58.6667 3.66667 58.5 4H59C59 2.83333 59.5 2.25 60.5 2.25L61 2.5L61.5 2.25L62 3.5C61.8333 3.5 61.75 3.66667 61.75 4H62.25V2.25H62.5C62.5 2.58333 62.75 2.75 63.25 2.75V3.5C62.75 3.5 62.5 3.75 62.5 4.25L63.75 9C63.5833 9 63.5 9.125 63.5 9.375C63.5 10 63.5833 10.4583 63.75 10.75C63.5833 11.375 63.4167 13.625 63.25 17.5C63.4167 19.4583 63.5 20.875 63.5 21.75C63.5 22.1667 63.25 23.25 62.75 25C62.75 25.1667 62.8333 25.4167 63 25.75C62.6667 26 61.9167 29.4167 60.75 36L60.25 35.75C58.5 39.625 57.0833 41.875 56 42.5C53.5833 44.1667 51.3333 45 49.25 45ZM50 38.75H49.5V38.5H50V38.75ZM57 27.75H56.75V27.25H57V27.75ZM59 2.5H58.75V2H59V2.5Z" fill="#9CD0B5"/>
</svg>
